<?xml version="1.0" standalone="no"?>
<!DOCTYPE svg PUBLIC "-//W3C//DTD SVG 20010904//EN"
 "http://www.w3.org/TR/2001/REC-SVG-20010904/DTD/svg10.dtd">
<svg version="1.0" xmlns="http://www.w3.org/2000/svg"
 width="602.000000pt" height="602.000000pt" viewBox="0 0 602.000000 602.000000"
 preserveAspectRatio="xMidYMid meet">

<g transform="translate(0.000000,602.000000) scale(0.100000,-0.100000)"
fill="#000000" stroke="none">
<path d="M3017 4673 c-3 -5 -15 -53 -27 -108 -13 -55 -26 -106 -30 -113 -4 -9
-25 29 -55 97 -26 61 -53 111 -59 111 -6 0 -22 -50 -36 -112 -14 -61 -29 -111
-34 -110 -5 0 -28 46 -50 101 -35 85 -44 101 -63 101 -26 0 -30 13 46 -160 27
-64 56 -116 65 -118 16 -4 25 21 53 151 9 42 19 77 23 77 3 0 26 -47 50 -105
37 -86 48 -105 64 -103 16 3 24 23 46 123 15 66 30 132 33 148 6 20 4 27 -7
27 -8 0 -17 -3 -19 -7z"/>
<path d="M3158 4592 c-21 -37 -56 -100 -79 -140 -34 -60 -38 -73 -23 -70 10 1
30 23 44 48 26 44 28 45 75 45 l49 0 16 -54 c15 -49 43 -81 57 -67 9 8 -80
299 -92 303 -6 1 -27 -27 -47 -65z m46 -29 c4 -16 9 -36 12 -45 4 -14 -1 -18
-20 -18 -51 0 -56 8 -32 51 25 46 32 48 40 12z"/>
<path d="M3373 4498 c-51 -147 -51 -149 -36 -155 7 -2 24 34 44 96 18 56 36
101 40 101 3 0 33 -59 66 -132 33 -73 65 -134 70 -135 14 -5 97 257 84 270
-12 12 -15 5 -52 -110 -12 -40 -25 -73 -28 -73 -4 0 -34 59 -68 130 -34 72
-65 130 -70 130 -4 0 -27 -55 -50 -122z"/>
<path d="M2520 4530 c-22 -45 -44 -78 -49 -76 -5 3 -14 26 -21 52 -13 45 -29
62 -49 50 -14 -9 77 -276 94 -276 24 0 25 16 5 75 -11 32 -18 60 -16 63 3 2
39 -17 81 -43 61 -39 80 -46 97 -38 19 8 12 15 -63 58 -46 27 -85 50 -87 51
-2 1 15 38 37 83 31 61 37 81 26 81 -9 0 -32 -34 -55 -80z"/>
<path d="M2210 4465 c0 -3 25 -43 55 -90 30 -47 49 -85 42 -85 -6 0 -72 14
-145 31 -73 18 -135 29 -138 26 -6 -6 14 -40 114 -196 22 -35 37 -50 44 -43 6
6 -10 40 -47 97 -31 48 -55 89 -53 91 2 1 64 -12 138 -31 74 -19 143 -35 152
-35 13 0 -3 31 -59 120 -42 66 -83 120 -90 120 -7 0 -13 -2 -13 -5z"/>
<path d="M3800 4381 c-91 -133 -97 -159 -54 -211 52 -61 120 -77 168 -39 28
22 126 161 126 179 0 24 -21 5 -68 -62 -27 -40 -59 -82 -71 -92 -48 -43 -133
-9 -139 56 -2 28 8 51 56 125 52 79 57 91 43 100 -14 9 -24 -1 -61 -56z"/>
<path d="M1925 4270 c-5 -8 17 -37 58 -79 100 -102 108 -132 52 -188 -48 -48
-71 -40 -167 54 -67 67 -79 75 -93 63 -14 -12 -9 -21 52 -82 37 -38 81 -76 97
-85 40 -21 86 -9 129 33 70 70 58 118 -52 228 -46 46 -71 64 -76 56z"/>
<path d="M4034 4139 c-54 -51 -99 -96 -99 -101 0 -19 21 -6 91 57 41 37 76 66
78 64 1 -2 -1 -53 -6 -114 -5 -60 -7 -129 -6 -153 l3 -43 100 93 c55 51 101
98 103 103 9 26 -21 9 -86 -51 -40 -37 -74 -65 -76 -63 -1 2 1 67 6 144 4 77
4 143 -1 148 -4 4 -52 -34 -107 -84z"/>
<path d="M2876 4129 c-470 -61 -863 -428 -950 -889 -20 -104 -21 -292 -1 -401
29 -170 112 -362 210 -489 64 -83 142 -160 163 -160 12 0 33 30 66 98 77 156
150 258 260 368 108 107 203 173 332 229 41 18 78 36 82 40 17 18 -157 -7
-241 -36 -181 -60 -346 -175 -466 -324 l-32 -40 -20 25 c-33 42 -97 181 -121
265 -20 69 -23 102 -23 240 1 121 5 176 18 225 27 97 68 201 82 206 7 3 72 -9
145 -25 74 -17 134 -30 136 -28 1 1 -34 51 -77 112 -43 60 -79 115 -79 121 0
7 33 43 74 81 282 259 682 321 1024 157 39 -19 72 -38 72 -43 0 -4 -28 -11
-63 -14 -169 -16 -328 -132 -388 -284 -18 -47 -23 -78 -23 -163 -1 -191 46
-281 269 -511 123 -127 149 -160 184 -231 53 -106 67 -184 51 -275 -16 -94
-54 -169 -119 -234 -89 -88 -191 -128 -330 -129 -142 0 -286 58 -397 163 l-62
58 -35 -58 c-48 -80 -67 -119 -67 -137 0 -20 181 -108 280 -136 162 -46 393
-36 535 23 269 112 436 386 396 646 -27 170 -77 253 -270 447 -119 120 -143
150 -177 218 -37 77 -39 84 -39 180 0 87 3 107 24 146 36 69 107 137 169 160
65 24 187 27 258 5 27 -8 59 -15 71 -15 28 0 47 33 34 58 -18 34 -119 121
-204 176 -228 149 -485 209 -751 175z"/>
<path d="M1711 4046 c-10 -12 -5 -28 24 -86 l36 -71 -78 6 c-70 6 -80 5 -96
-13 -18 -20 -17 -20 84 -27 95 -7 106 -10 150 -42 44 -31 48 -32 57 -16 9 15
2 24 -40 53 -44 32 -55 47 -87 124 -31 72 -40 84 -50 72z"/>
<path d="M4243 3870 c-97 -66 -111 -79 -100 -93 11 -14 25 -7 129 64 83 56
116 84 112 94 -4 8 -11 15 -18 14 -6 -1 -62 -36 -123 -79z"/>
<path d="M4316 3760 c-78 -97 -94 -122 -80 -127 18 -7 293 12 302 21 3 4 1 11
-5 17 -8 8 -45 7 -127 -1 -64 -7 -119 -10 -121 -8 -3 2 31 45 75 95 54 61 78
97 74 107 -3 9 -10 16 -14 16 -4 0 -51 -54 -104 -120z"/>
<path d="M1557 3810 c-3 -12 8 -57 24 -100 16 -44 24 -80 19 -80 -6 0 -33 11
-59 25 -42 21 -50 22 -55 9 -3 -9 -6 -17 -6 -20 0 -5 237 -124 249 -124 5 0
11 7 15 15 4 11 -12 24 -55 46 -34 17 -59 33 -56 35 3 3 43 14 90 25 69 16 86
24 95 44 l11 23 -87 -24 c-48 -13 -94 -24 -102 -24 -11 0 -25 27 -44 85 -15
47 -29 85 -30 85 -2 0 -6 -9 -9 -20z"/>
<path d="M4420 3539 c-68 -22 -126 -41 -127 -43 -2 -1 6 -29 17 -62 32 -93 29
-89 42 -76 7 7 6 24 -6 58 -9 26 -16 49 -16 50 0 2 18 8 41 14 22 6 46 13 54
16 8 4 17 -8 25 -33 7 -21 16 -42 21 -47 17 -18 18 0 4 46 l-14 47 46 15 c26
9 48 16 49 16 2 0 11 -25 20 -55 10 -30 21 -52 25 -48 11 11 -30 143 -45 143
-6 -1 -67 -19 -136 -41z"/>
<path d="M1410 3431 c-32 -63 -35 -111 -11 -165 16 -37 29 -51 63 -66 55 -25
105 -25 145 0 45 27 63 59 76 135 13 78 6 90 -65 100 -44 7 -48 6 -48 -13 0
-17 8 -22 45 -28 44 -6 45 -7 45 -44 0 -53 -14 -86 -45 -106 -35 -23 -105 -21
-153 3 -64 34 -75 119 -22 186 18 23 18 37 -1 37 -5 0 -18 -18 -29 -39z"/>
<path d="M4495 3317 c-77 -10 -141 -20 -143 -22 -3 -2 -2 -11 2 -20 5 -14 16
-16 71 -10 43 5 65 4 65 -3 0 -6 -4 -13 -9 -16 -5 -3 -31 -32 -59 -63 -33 -39
-47 -64 -43 -75 5 -13 18 -3 61 48 55 64 70 75 70 51 0 -22 47 -59 75 -59 57
0 77 52 57 152 l-7 35 -140 -18z m133 -69 c3 -30 -1 -40 -22 -54 -24 -15 -28
-15 -51 0 -14 9 -25 22 -25 29 0 6 -3 22 -6 34 -5 18 -1 22 23 26 65 10 78 5
81 -35z"/>
<path d="M1350 3095 c0 -12 19 -15 107 -15 l108 0 -108 -108 c-59 -59 -105
-111 -101 -115 18 -17 284 -1 284 18 0 9 -28 10 -105 7 -70 -3 -105 -1 -105 6
0 6 47 55 105 109 58 54 105 101 105 106 0 4 -65 7 -145 7 -122 0 -145 -2
-145 -15z"/>
<path d="M4390 3048 c-25 -42 -25 -94 0 -135 41 -68 108 -51 154 39 28 55 52
73 82 61 23 -9 29 -54 11 -85 -19 -33 -2 -52 20 -23 23 32 17 102 -12 130 -44
45 -94 25 -130 -51 -14 -30 -34 -58 -45 -64 -27 -14 -68 4 -75 33 -8 29 18 95
40 104 13 5 14 7 3 14 -21 14 -27 11 -48 -23z"/>
<path d="M4360 2791 c0 -16 18 -21 136 -40 75 -11 140 -19 145 -15 11 6 12 34
2 34 -5 0 -62 9 -128 20 -149 24 -155 25 -155 1z"/>
<path d="M1458 2766 c-52 -12 -88 -26 -88 -33 0 -17 11 -16 100 7 101 27 135
26 165 -5 32 -31 35 -95 5 -123 -11 -10 -64 -29 -120 -42 -81 -19 -100 -27
-100 -42 0 -10 7 -18 16 -18 26 0 176 40 204 55 95 49 42 228 -67 224 -15 -1
-67 -11 -115 -23z"/>
<path d="M4611 2647 c-6 -16 -11 -35 -11 -43 0 -19 -9 -18 -145 20 -107 30
-121 32 -126 17 -8 -21 -3 -23 134 -62 117 -32 118 -33 111 -58 -4 -14 -8 -36
-8 -48 -1 -19 -10 -22 -93 -33 -88 -12 -96 -11 -143 9 -28 12 -55 19 -60 16
-22 -14 -7 -33 44 -54 46 -19 60 -32 108 -102 43 -61 57 -76 62 -62 7 16 0 28
-61 109 l-23 31 31 7 c17 3 49 6 70 6 48 0 64 16 84 88 9 31 23 81 31 110 17
57 13 94 -5 49z"/>
<path d="M2750 2519 c-24 -14 -28 -19 -12 -15 22 4 22 2 22 -90 0 -77 3 -94
15 -94 12 0 15 19 15 110 0 61 -1 110 -2 110 -2 -1 -19 -10 -38 -21z"/>
<path d="M2870 2525 c-15 -18 -7 -19 20 -3 16 10 23 10 36 -4 22 -21 12 -61
-18 -76 l-23 -11 23 0 c31 -1 48 -40 32 -71 -10 -19 -18 -22 -51 -17 -42 6
-54 -7 -15 -17 57 -14 119 40 96 84 -5 10 -15 20 -22 22 -8 3 -7 11 5 28 22
31 21 36 -3 60 -24 24 -63 26 -80 5z"/>
<path d="M3042 2517 c-26 -27 -28 -54 -6 -85 16 -23 67 -31 79 -12 4 7 -2 9
-17 5 -32 -8 -50 14 -46 56 4 39 30 59 56 43 14 -9 17 -25 17 -82 -1 -84 -14
-105 -62 -100 -38 5 -40 3 -14 -12 48 -25 111 40 111 116 0 81 -69 123 -118
71z"/>
<path d="M3228 2529 c-20 -11 -24 -49 -6 -67 9 -9 7 -16 -6 -31 -11 -12 -16
-31 -14 -52 6 -65 98 -75 126 -13 13 26 2 69 -19 76 -9 3 -8 11 4 29 15 23 15
27 1 47 -16 24 -56 29 -86 11z m62 -14 c17 -21 4 -65 -19 -65 -30 0 -46 26
-33 55 13 28 34 32 52 10z m4 -91 c30 -30 11 -84 -30 -84 -34 0 -51 43 -29 76
18 28 37 30 59 8z"/>
<path d="M1634 2487 c-24 -21 -27 -32 -29 -90 -1 -37 -8 -74 -15 -82 -30 -37
-86 2 -78 54 3 19 0 32 -8 35 -35 14 -27 -67 11 -108 17 -18 34 -26 58 -26 51
0 70 28 75 108 5 77 13 92 53 92 48 0 76 -69 49 -121 -9 -16 -7 -19 9 -19 48
0 34 109 -20 154 -38 32 -70 33 -105 3z"/>
<path d="M3987 2054 c-79 -82 -95 -103 -84 -113 11 -9 31 7 100 76 l86 88 54
-53 c48 -47 55 -51 67 -37 11 14 8 21 -21 51 -19 20 -50 48 -69 63 l-35 27
-98 -102z"/>
<path d="M1858 2113 c-41 -4 -48 -7 -48 -25 0 -19 5 -20 65 -16 l65 4 -6 -51
c-3 -27 -7 -56 -9 -62 -3 -8 5 -13 19 -13 21 0 24 6 30 61 3 34 6 73 6 85 0
26 -2 26 -122 17z"/>
<path d="M4245 1970 l-40 -40 -37 30 c-32 27 -37 28 -49 14 -12 -14 -9 -20 21
-45 l34 -29 -22 -22 -22 -22 -33 32 c-30 29 -35 31 -47 17 -11 -13 -8 -21 19
-49 l32 -33 -22 -27 c-16 -21 -19 -30 -10 -39 8 -8 39 19 124 108 61 65 112
123 112 128 0 23 -23 15 -60 -23z"/>
<path d="M2005 1979 c-4 -5 1 -19 11 -31 18 -19 18 -20 -8 -43 -23 -20 -25
-25 -13 -35 12 -10 25 -3 70 35 59 51 60 52 45 75 -7 12 -12 12 -29 -4 -20
-18 -22 -18 -39 -3 -22 20 -28 21 -37 6z"/>
<path d="M1819 1921 c-39 -40 -38 -74 5 -117 52 -52 112 -43 136 20 15 41 -10
93 -54 111 -48 20 -53 19 -87 -14z m93 -28 c21 -18 24 -53 6 -71 -19 -19 -66
-15 -78 7 -32 60 23 109 72 64z"/>
<path d="M3767 1879 c-16 -10 -14 -17 25 -89 36 -67 45 -77 60 -69 17 9 17 11
-2 48 -19 39 -19 39 0 52 28 20 11 46 -18 30 -18 -10 -23 -8 -34 13 -10 20
-17 23 -31 15z"/>
<path d="M2234 1858 c-9 -14 13 -31 108 -79 42 -21 79 -43 82 -48 4 -5 -1 -26
-11 -45 l-17 -36 -113 60 c-62 33 -115 60 -117 60 -2 0 -6 -7 -10 -15 -4 -10
7 -21 34 -35 42 -21 46 -30 30 -60 -8 -15 -6 -20 11 -25 20 -7 32 2 42 29 2 5
13 4 25 -3 19 -10 20 -15 10 -37 -10 -21 -9 -27 3 -35 10 -6 19 -2 32 16 l19
25 35 -21 c28 -17 37 -19 43 -9 5 7 6 19 3 26 -2 6 7 35 21 63 l26 50 -68 37
c-37 20 -91 50 -119 65 -60 33 -59 33 -69 17z"/>
<path d="M3671 1818 c-6 -7 -29 -13 -49 -13 -30 0 -38 -4 -40 -21 -2 -12 -17
-27 -37 -37 -24 -12 -33 -21 -29 -32 4 -10 13 -13 25 -10 15 5 19 1 19 -15 0
-11 11 -32 25 -45 35 -36 88 -34 126 4 35 36 38 77 7 116 -14 19 -18 30 -11
32 15 5 5 33 -11 33 -7 0 -18 -6 -25 -12z m19 -83 c17 -20 5 -62 -20 -70 -47
-15 -82 23 -60 65 13 24 61 27 80 5z"/>
<path d="M2126 1652 l-24 -47 127 -67 c105 -56 127 -64 134 -52 11 19 22 10
-101 75 -82 43 -102 58 -97 72 3 9 8 25 11 36 3 11 0 20 -10 24 -12 5 -22 -7
-40 -41z"/>
<path d="M3367 1693 c-3 -5 -2 -27 3 -48 6 -28 5 -42 -3 -47 -21 -13 -24 -9
-31 42 -7 51 -11 56 -35 41 -13 -8 -9 -52 15 -172 5 -24 2 -26 -59 -37 -96
-18 -91 -20 -105 58 -7 39 -12 74 -12 79 0 5 25 12 55 16 30 3 55 8 55 10 0 2
-2 10 -5 18 -5 12 -16 12 -77 0 -39 -7 -73 -14 -74 -16 -2 -2 11 -80 31 -193
l5 -31 100 17 c95 16 100 16 100 -1 0 -31 12 -49 31 -49 23 0 23 -4 4 93 -8
43 -15 81 -15 83 0 2 8 4 18 4 16 0 21 -14 31 -85 11 -72 16 -85 32 -85 24 0
24 13 -4 175 -18 99 -27 131 -39 133 -9 2 -19 -1 -21 -5z"/>
<path d="M3755 1634 c-66 -37 -122 -68 -123 -70 -2 -1 0 -9 5 -17 7 -13 26 -5
113 44 58 32 108 59 113 59 4 0 13 -11 19 -25 12 -27 16 -29 36 -16 11 7 10
16 -7 50 -12 22 -25 41 -29 41 -4 0 -61 -30 -127 -66z"/>
<path d="M2630 1672 c0 -16 9 -22 43 -27 118 -18 109 -13 102 -59 -9 -50 -6
-46 -33 -39 -15 3 -22 13 -22 29 0 31 -36 33 -45 3 -6 -18 -13 -20 -40 -16
-25 4 -35 1 -39 -10 -4 -9 -5 -17 -4 -18 2 -2 50 -10 108 -19 171 -28 161 -24
154 -53 -6 -22 -4 -24 17 -21 21 3 25 11 33 60 8 53 10 57 31 52 17 -4 24 0
28 15 4 17 1 21 -20 21 -22 0 -25 4 -21 29 4 24 0 30 -18 34 -21 4 -23 -1 -30
-60 -6 -61 -7 -63 -35 -63 -33 0 -33 -1 -19 70 6 29 9 55 7 56 -1 2 -34 8 -72
14 -39 6 -82 13 -97 16 -23 5 -28 2 -28 -14z"/>
<path d="M2605 1456 c-13 -68 -13 -68 137 -91 131 -20 137 -20 141 -3 3 10 3
18 0 18 -8 0 -193 30 -220 36 -19 3 -21 9 -16 39 5 31 3 35 -15 35 -16 0 -23
-8 -27 -34z"/>
</g>
</svg>
