<?xml version="1.0" encoding="UTF-8" standalone="no"?>
<!-- Created with Inkscape (http://www.inkscape.org/) -->

<svg
   version="1.1"
   id="svg2"
   xml:space="preserve"
   width="816.37732"
   height="1145.1973"
   viewBox="0 0 816.37732 1145.1973"
   sodipodi:docname="엠블렘.ai"
   xmlns:inkscape="http://www.inkscape.org/namespaces/inkscape"
   xmlns:sodipodi="http://sodipodi.sourceforge.net/DTD/sodipodi-0.dtd"
   xmlns="http://www.w3.org/2000/svg"
   xmlns:svg="http://www.w3.org/2000/svg"><defs
     id="defs6"><clipPath
       clipPathUnits="userSpaceOnUse"
       id="clipPath16"><path
         d="M 0,858.898 H 612.283 V 0 H 0 Z"
         id="path14" /></clipPath><linearGradient
       x1="0"
       y1="0"
       x2="1"
       y2="0"
       gradientUnits="userSpaceOnUse"
       gradientTransform="matrix(-38.649559,21.796415,21.796415,38.649559,316.74817,429.14731)"
       spreadMethod="pad"
       id="linearGradient170"><stop
         style="stop-opacity:1;stop-color:#ffffff"
         offset="0"
         id="stop162" /><stop
         style="stop-opacity:1;stop-color:#e7eb8e"
         offset="0.2"
         id="stop164" /><stop
         style="stop-opacity:1;stop-color:#aacc03"
         offset="0.76"
         id="stop166" /><stop
         style="stop-opacity:1;stop-color:#8dc21f"
         offset="1"
         id="stop168" /></linearGradient><linearGradient
       x1="0"
       y1="0"
       x2="1"
       y2="0"
       gradientUnits="userSpaceOnUse"
       gradientTransform="matrix(-36.044681,24.039923,24.039923,36.044681,313.51209,443.51346)"
       spreadMethod="pad"
       id="linearGradient198"><stop
         style="stop-opacity:1;stop-color:#e5ea90"
         offset="0"
         id="stop186" /><stop
         style="stop-opacity:1;stop-color:#c7da58"
         offset="0.12429772"
         id="stop188" /><stop
         style="stop-opacity:1;stop-color:#c7da58"
         offset="0.2"
         id="stop190" /><stop
         style="stop-opacity:1;stop-color:#a1c710"
         offset="0.4"
         id="stop192" /><stop
         style="stop-opacity:1;stop-color:#65b12f"
         offset="0.93338074"
         id="stop194" /><stop
         style="stop-opacity:1;stop-color:#65b12f"
         offset="1"
         id="stop196" /></linearGradient><linearGradient
       x1="0"
       y1="0"
       x2="1"
       y2="0"
       gradientUnits="userSpaceOnUse"
       gradientTransform="matrix(-36.040817,24.037344,24.037344,36.040817,318.40948,450.85757)"
       spreadMethod="pad"
       id="linearGradient226"><stop
         style="stop-opacity:1;stop-color:#e5ea90"
         offset="0"
         id="stop214" /><stop
         style="stop-opacity:1;stop-color:#c7da58"
         offset="0.12429772"
         id="stop216" /><stop
         style="stop-opacity:1;stop-color:#c7da58"
         offset="0.2"
         id="stop218" /><stop
         style="stop-opacity:1;stop-color:#a1c710"
         offset="0.4"
         id="stop220" /><stop
         style="stop-opacity:1;stop-color:#65b12f"
         offset="0.93338074"
         id="stop222" /><stop
         style="stop-opacity:1;stop-color:#65b12f"
         offset="1"
         id="stop224" /></linearGradient><linearGradient
       x1="0"
       y1="0"
       x2="1"
       y2="0"
       gradientUnits="userSpaceOnUse"
       gradientTransform="matrix(-36.043491,24.039129,24.039129,36.043491,300.66177,424.25241)"
       spreadMethod="pad"
       id="linearGradient254"><stop
         style="stop-opacity:1;stop-color:#e5ea90"
         offset="0"
         id="stop242" /><stop
         style="stop-opacity:1;stop-color:#c7da58"
         offset="0.12429772"
         id="stop244" /><stop
         style="stop-opacity:1;stop-color:#c7da58"
         offset="0.2"
         id="stop246" /><stop
         style="stop-opacity:1;stop-color:#a1c710"
         offset="0.4"
         id="stop248" /><stop
         style="stop-opacity:1;stop-color:#65b12f"
         offset="0.93338074"
         id="stop250" /><stop
         style="stop-opacity:1;stop-color:#65b12f"
         offset="1"
         id="stop252" /></linearGradient><linearGradient
       x1="0"
       y1="0"
       x2="1"
       y2="0"
       gradientUnits="userSpaceOnUse"
       gradientTransform="matrix(-36.04134,24.037695,24.037695,36.04134,296.23444,417.61316)"
       spreadMethod="pad"
       id="linearGradient282"><stop
         style="stop-opacity:1;stop-color:#e5ea90"
         offset="0"
         id="stop270" /><stop
         style="stop-opacity:1;stop-color:#c7da58"
         offset="0.12429772"
         id="stop272" /><stop
         style="stop-opacity:1;stop-color:#c7da58"
         offset="0.2"
         id="stop274" /><stop
         style="stop-opacity:1;stop-color:#a1c710"
         offset="0.4"
         id="stop276" /><stop
         style="stop-opacity:1;stop-color:#65b12f"
         offset="0.93338074"
         id="stop278" /><stop
         style="stop-opacity:1;stop-color:#65b12f"
         offset="1"
         id="stop280" /></linearGradient><clipPath
       clipPathUnits="userSpaceOnUse"
       id="clipPath292"><path
         d="M 0,858.898 H 612.283 V 0 H 0 Z"
         id="path290" /></clipPath></defs><sodipodi:namedview
     id="namedview4"
     pagecolor="#ffffff"
     bordercolor="#666666"
     borderopacity="1.0"
     inkscape:pageshadow="2"
     inkscape:pageopacity="0.0"
     inkscape:pagecheckerboard="0" /><g
     id="g8"
     inkscape:groupmode="layer"
     inkscape:label="엠블렘"
     transform="matrix(1.3333333,0,0,-1.3333333,0,1145.1973)"><g
       id="g10"><g
         id="g12"
         clip-path="url(#clipPath16)"><g
           id="g18"
           transform="translate(359.9073,381.1798)"><path
             d="M 0,0 C 0,0 -1.361,-1.433 -1.527,-1.605 -1.344,-1.777 1.73,-4.709 1.73,-4.709 L -0.006,-6.53 c 0,0 -3.078,2.929 -3.258,3.101 -0.162,-0.165 -1.474,-1.547 -1.632,-1.716 0.179,-0.171 3.253,-3.102 3.253,-3.102 0,0 -2.132,-2.241 -2.306,-2.423 0.164,-0.158 1.355,-1.29 1.519,-1.447 C -2.246,-11.925 8.664,-0.472 8.85,-0.28 8.682,-0.123 7.488,1.011 7.328,1.168 7.148,0.98 3.367,-2.988 3.367,-2.988 c 0,0 -3.076,2.929 -3.258,3.102 C 0.059,0.059 0,0 0,0"
             style="fill:#76777b;fill-opacity:1;fill-rule:nonzero;stroke:none"
             id="path20" /></g><g
           id="g22"
           transform="translate(364.5186,382.9123)"><path
             d="M 0,0 C -0.187,0.182 -6.521,6.216 -6.709,6.396 L -6.818,6.283 c 0,0 -9.475,-9.945 -9.659,-10.141 0.165,-0.157 1.352,-1.288 1.516,-1.445 0.186,0.194 8.137,8.541 8.137,8.541 0,0 5.006,-4.769 5.197,-4.949 z"
             style="fill:#76777b;fill-opacity:1;fill-rule:nonzero;stroke:none"
             id="path24" /></g><g
           id="g26"
           transform="translate(250.0479,376.3429)"><path
             d="M 0,0 C 0.884,0.824 2.347,0.702 3.255,-0.268 4.167,-1.246 4.195,-2.711 3.313,-3.536 2.43,-4.363 0.969,-4.243 0.046,-3.271 -0.859,-2.29 -0.879,-0.825 0,0 M -1.52,1.586 C -3.178,0.033 -3.124,-2.728 -1.395,-4.572 0.334,-6.419 3.084,-6.663 4.746,-5.109 6.402,-3.559 6.35,-0.792 4.619,1.054 2.891,2.903 0.141,3.14 -1.52,1.586"
             style="fill:#76777b;fill-opacity:1;fill-rule:nonzero;stroke:none"
             id="path28" /></g><g
           id="g30"
           transform="translate(263.7036,379.6886)"><path
             d="M 0,0 C 0,0 -1.298,1.386 -1.459,1.553 -1.63,1.394 -3.351,-0.22 -3.351,-0.22 c 0,0 -1.682,1.8 -1.844,1.973 -0.164,-0.151 -1.312,-1.227 -1.471,-1.379 0.159,-0.168 1.842,-1.969 1.842,-1.969 0,0 -2.31,-2.163 -2.49,-2.331 0.152,-0.162 1.404,-1.503 1.561,-1.665 0.185,0.171 5.673,5.309 5.857,5.482 C 0.051,-0.053 0,0 0,0"
             style="fill:#76777b;fill-opacity:1;fill-rule:nonzero;stroke:none"
             id="path32" /></g><g
           id="g34"
           transform="translate(256.7354,387.2043)"><path
             d="m 0,0 c 0,0 -8.366,-0.347 -8.629,-0.36 0.016,-0.228 0.138,-2.065 0.156,-2.286 0.25,0.017 6.184,0.354 6.184,0.354 0,0 -0.725,-5.567 -0.76,-5.817 0.22,-0.029 2.043,-0.279 2.266,-0.306 0.027,0.257 0.928,8.127 0.963,8.424 C 0.09,0.009 0,0 0,0"
             style="fill:#76777b;fill-opacity:1;fill-rule:nonzero;stroke:none"
             id="path36" /></g><g
           id="g38"
           transform="translate(325.294,351.8546)"><path
             d="m 0,0 2.264,0.39 -2.567,14.92 c -0.072,-0.016 -0.152,-0.029 -0.152,-0.029 0,0 -1.877,-0.324 -2.108,-0.362 0.04,-0.253 0.792,-4.586 0.792,-4.586 l -1.336,-0.229 c 0,0 -0.747,4.334 -0.786,4.586 L -6.18,14.296 -4.547,4.822 c -1.81,-0.31 -7.176,-1.234 -7.176,-1.234 l -1.256,7.289 c 0,0 5.055,0.87 5.301,0.913 L -8,13.679 c 0,0 -0.014,-0.003 -0.033,-0.006 l -7.524,-1.295 c 0.465,-2.687 1.895,-10.97 1.93,-11.183 l 9.422,1.618 0.594,-3.44 2.285,0.389 C -1.369,0.014 -2.762,8.1 -2.762,8.1 L -1.43,8.328 C -1.43,8.328 -0.043,0.25 0,0"
             style="fill:#76777b;fill-opacity:1;fill-rule:nonzero;stroke:none"
             id="path40" /></g><g
           id="g42"
           transform="translate(266.7076,366.0548)"><path
             d="m 0,0 -2.044,1.087 -2.534,-4.756 12.444,-6.627 0.97,1.815 c -0.234,0.12 -10.404,5.535 -10.404,5.535 0,0 1.453,2.724 1.568,2.946 m 12.471,-2.714 c 0,0 -0.254,0.135 -0.697,0.371 l 2.809,5.28 c -0.067,0.035 -0.138,0.068 -0.138,0.068 0,0 -11.828,6.298 -12.058,6.419 L 1.42,7.609 C 1.649,7.488 11.566,2.21 11.566,2.21 c 0,0 -1.126,-2.114 -1.839,-3.464 L -1.338,4.636 -2.301,2.825 C -2.08,2.709 2.047,0.514 2.047,0.514 c 0,0 -1.158,-2.171 -1.268,-2.384 l 2.073,-1.106 c 0.111,0.213 1.272,2.384 1.272,2.384 l 1.845,-0.982 c 0,0 -1.154,-2.169 -1.27,-2.381 l 2.076,-1.108 c 0.11,0.212 1.268,2.383 1.268,2.383 0,0 3.383,-1.799 3.6,-1.917 l 0.963,1.813 c -0.065,0.033 -0.135,0.07 -0.135,0.07"
             style="fill:#76777b;fill-opacity:1;fill-rule:nonzero;stroke:none"
             id="path44" /></g><g
           id="g46"
           transform="translate(301.7295,362.0226)"><path
             d="m 0,0 c 0,0 0.375,2.378 0.41,2.616 -0.066,0.007 -0.145,0.02 -0.145,0.02 0,0 -1.904,0.302 -2.138,0.336 l -0.971,-6.183 -2.316,0.363 0.924,5.911 c -0.073,0.012 -0.147,0.023 -0.147,0.023 0,0 -9.334,1.464 -9.588,1.505 l -0.322,-2.034 c 0.253,-0.038 7.447,-1.166 7.447,-1.166 0,0 -0.416,-2.666 -0.61,-3.877 -1.296,0.201 -2.304,0.36 -2.304,0.36 0,0 0.308,1.933 0.344,2.164 -0.07,0.009 -0.147,0.02 -0.147,0.02 0,0 -1.945,0.307 -2.177,0.341 -0.036,-0.229 -0.337,-2.16 -0.337,-2.16 0,0 -3.296,0.516 -3.538,0.555 l -0.319,-2.032 12.774,-2.005 -0.373,-2.371 2.283,-0.359 c 0.041,0.25 0.934,5.958 0.934,5.958 0,0 2.109,-0.332 2.347,-0.371 l 0.313,2.017 C 2.111,-0.332 0,0 0,0 m -12.725,-5.159 c -0.076,0.012 -0.148,0.023 -0.148,0.023 0,0 -1.908,0.298 -2.141,0.333 l -0.838,-5.325 14.033,-2.202 0.317,2.029 c -0.254,0.04 -11.738,1.841 -11.738,1.841 0,0 0.476,3.054 0.515,3.301"
             style="fill:#76777b;fill-opacity:1;fill-rule:nonzero;stroke:none"
             id="path48" /></g><g
           id="g50"
           transform="translate(343.128,376.1212)"><path
             d="m 0,0 c 0,0 -1.664,-0.921 -1.869,-1.035 0.129,-0.217 4.201,-7.566 4.326,-7.787 0.195,0.106 1.801,0.996 1.996,1.105 -0.117,0.22 -2.084,3.763 -2.084,3.763 0,0 1.822,1.012 2.027,1.126 -0.103,0.19 -0.865,1.566 -0.974,1.756 -0.207,-0.115 -2.029,-1.124 -2.029,-1.124 0,0 -1.145,2.062 -1.262,2.274 C 0.066,0.038 0,0 0,0"
             style="fill:#76777b;fill-opacity:1;fill-rule:nonzero;stroke:none"
             id="path52" /></g><g
           id="g54"
           transform="translate(347.9405,367.4005)"><path
             d="m 0,0 c 0,0 -12.236,-6.788 -12.463,-6.915 0.108,-0.196 0.879,-1.587 0.988,-1.777 0.225,0.125 10.596,5.876 10.596,5.876 0,0 1.391,-2.504 1.506,-2.72 0.199,0.113 1.805,1.002 2.002,1.114 C 2.51,-4.205 0.254,-0.144 0.133,0.071 0.064,0.037 0,0 0,0"
             style="fill:#76777b;fill-opacity:1;fill-rule:nonzero;stroke:none"
             id="path56" /></g><g
           id="g58"
           transform="translate(337.7764,365.4953)"><path
             d="M 0,0 C -1.076,-0.596 -2.406,-0.254 -2.971,0.768 -3.537,1.783 -3.125,3.089 -2.049,3.688 -0.975,4.283 0.352,3.939 0.918,2.92 1.482,1.904 1.068,0.596 0,0 M 1.547,8.202 -2.166,6.143 c -0.006,0 -0.01,-10e-4 -0.012,-10e-4 L -2.855,7.363 -4.887,6.241 -4.205,5.013 -7.98,2.92 -7.035,1.222 -5.674,1.976 c -0.06,-0.801 0.094,-1.622 0.51,-2.369 1.18,-2.123 3.955,-2.838 6.199,-1.59 2.244,1.239 3.106,3.975 1.93,6.1 -0.418,0.746 -1.028,1.31 -1.74,1.685 l 1.263,0.706 z"
             style="fill:#76777b;fill-opacity:1;fill-rule:nonzero;stroke:none"
             id="path60" /></g><g
           id="g62"
           transform="translate(384.544,423.8048)"><path
             d="M 0,0 -1.75,1.097 C 0.092,1.941 0.148,3.782 0.148,3.782 0.219,5.218 -0.621,6.255 -1.85,6.247 -3.473,6.234 -4.066,4.798 -4.748,3.139 -5.492,1.355 -6.633,-0.517 -8.902,-0.653 c -2.746,-0.166 -4.606,2.26 -4.467,5.601 0.137,3.249 2.381,4.807 2.381,4.807 l 2.064,-0.95 c 0,0 -2.902,-0.957 -3.086,-4.455 -0.082,-1.55 1.055,-2.75 2.574,-2.742 1.625,0.014 2.202,1.4 2.87,3.014 0.748,1.806 1.593,3.854 4.179,3.875 C 0.143,8.516 1.674,6.513 1.523,3.399 1.523,3.399 1.482,1.407 0,0"
             style="fill:#76777b;fill-opacity:1;fill-rule:nonzero;stroke:none"
             id="path64" /></g><g
           id="g66"
           transform="translate(232.7232,401.0324)"><path
             d="M 0,0 2.049,-0.223 C 0.762,-1.789 1.518,-3.47 1.518,-3.47 c 0.566,-1.321 1.774,-1.886 2.875,-1.341 1.455,0.724 1.359,2.275 1.25,4.066 -0.114,1.93 0.094,4.108 2.074,5.225 2.396,1.351 5.133,-0.016 6.467,-3.081 1.3,-2.981 -0.034,-5.364 -0.034,-5.364 l -2.279,-0.051 c 0,0 2.196,2.133 0.826,5.358 C 12.094,2.771 10.545,3.355 9.184,2.677 7.727,1.957 7.817,0.458 7.924,-1.285 8.043,-3.237 8.176,-5.449 5.859,-6.598 3.596,-7.721 1.342,-6.591 0.117,-3.724 0.117,-3.724 -0.721,-1.916 0,0"
             style="fill:#76777b;fill-opacity:1;fill-rule:nonzero;stroke:none"
             id="path68" /></g><g
           id="g70"
           transform="translate(230.501,452.4064)"><path
             d="m 0,0 -0.148,-0.141 c -0.263,-0.269 -1.76,-1.834 -2.407,-4.939 -0.99,-4.761 1.227,-8.295 5.602,-9.204 4.472,-0.929 7.724,1.292 8.691,5.951 0.381,1.821 0.451,3.693 0.207,5.571 l -0.023,0.178 -5.436,1.13 -0.461,-2.215 4.586,-0.943 c 0.264,-1.071 0.158,-2.168 0.004,-2.917 -0.748,-3.6 -3.293,-5.139 -7.166,-4.333 -3.625,0.752 -5.472,3.137 -4.785,6.445 0.348,1.667 1.436,3.304 2.793,4.067 l 0.098,0.06 z"
             style="fill:#76777b;fill-opacity:1;fill-rule:nonzero;stroke:none"
             id="path72" /></g><g
           id="g74"
           transform="translate(244.2295,480.7467)"><path
             d="m 0,0 -1.272,-1.812 3.223,-6.719 -7.428,0.734 -1.617,-2.303 9.672,-0.554 c 0.115,-0.08 4.84,-3.392 4.84,-3.392 l 1.297,1.848 c 0,0 -4.885,3.421 -4.987,3.49 z"
             style="fill:#76777b;fill-opacity:1;fill-rule:nonzero;stroke:none"
             id="path76" /></g><g
           id="g78"
           transform="translate(376.501,392.0578)"><path
             d="m 0,0 0.887,2.023 -4.471,5.961 7.43,0.73 1.136,2.576 -9.593,-1.346 c -0.127,0.057 -5.409,2.386 -5.409,2.386 l -0.914,-2.068 c 0,0 5.463,-2.401 5.575,-2.449 z"
             style="fill:#76777b;fill-opacity:1;fill-rule:nonzero;stroke:none"
             id="path80" /></g><g
           id="g82"
           transform="translate(239.7725,460.9855)"><path
             d="m 0,0 -3.002,8.752 -1.016,-2.061 2.828,-8.23 c -0.384,0.189 -5.531,2.725 -5.531,2.725 l -0.998,-2.028 12.698,-6.24 0.997,2.034 -6.154,3.016 8.69,2.135 1.263,2.575 z"
             style="fill:#76777b;fill-opacity:1;fill-rule:nonzero;stroke:none"
             id="path84" /></g><g
           id="g86"
           transform="translate(282.1299,499.0539)"><path
             d="M 0,0 4.184,8.256 1.992,7.545 -1.932,-0.217 C -2.069,0.189 -3.828,5.65 -3.828,5.65 l -2.157,-0.699 4.381,-13.456 2.155,0.699 -2.125,6.52 7.586,-4.742 2.728,0.889 z"
             style="fill:#76777b;fill-opacity:1;fill-rule:nonzero;stroke:none"
             id="path88" /></g><g
           id="g90"
           transform="translate(293.9322,494.588)"><path
             d="M 0,0 1.694,0.169 4.356,11.351 8.922,0.892 10.863,1.082 14.151,15.634 12.205,15.442 9.543,3.933 4.836,14.706 3.547,14.579 0.915,3.091 -3.533,13.866 -5.912,13.635 Z"
             style="fill:#76777b;fill-opacity:1;fill-rule:nonzero;stroke:none"
             id="path92" /></g><g
           id="g94"
           transform="translate(314.7862,506.0729)"><path
             d="m 0,0 c 0.244,-0.829 0.975,-4.026 1.141,-4.59 l -3.45,0.416 z m 1.119,3.101 -0.996,0.12 -7.748,-13.502 1.93,-0.241 2.851,5.067 4.336,-0.523 1.502,-5.594 2.637,-0.318 z"
             style="fill:#76777b;fill-opacity:1;fill-rule:nonzero;stroke:none"
             id="path96" /></g><g
           id="g98"
           transform="translate(371.3701,475.528)"><path
             d="m 0,0 -11.711,-7.929 1.262,-1.866 11.707,7.932 z"
             style="fill:#76777b;fill-opacity:1;fill-rule:nonzero;stroke:none"
             id="path100" /></g><g
           id="g102"
           transform="translate(384.8916,418.4132)"><path
             d="m 0,0 -13.965,2.24 -0.357,-2.221 13.967,-2.24 z"
             style="fill:#76777b;fill-opacity:1;fill-rule:nonzero;stroke:none"
             id="path104" /></g><g
           id="g106"
           transform="translate(350.2178,486.6803)"><path
             d="m 0,0 c -1.971,-2.881 -4.053,-3.351 -6.27,-1.833 -2.501,1.713 -2.585,3.437 -0.5,6.488 l 4.461,6.515 -1.853,1.265 -4.568,-6.682 c -0.965,-1.445 -1.864,-3.096 -1.458,-4.787 0.352,-1.466 1.346,-2.74 2.987,-3.863 3.135,-2.146 6.064,-1.613 8.25,1.583 l 4.754,6.943 -1.33,0.912 z"
             style="fill:#76777b;fill-opacity:1;fill-rule:nonzero;stroke:none"
             id="path108" /></g><g
           id="g110"
           transform="translate(258.8174,484.2355)"><path
             d="m 0,0 c 2.447,-2.492 2.506,-4.623 0.588,-6.506 -2.165,-2.122 -3.87,-1.874 -6.457,0.765 l -5.533,5.634 -1.6,-1.574 5.671,-5.77 c 1.237,-1.227 2.679,-2.428 4.419,-2.357 1.504,0.061 2.949,0.789 4.369,2.182 2.709,2.662 2.752,5.639 0.041,8.402 l -5.9,6.004 -1.149,-1.129 z"
             style="fill:#76777b;fill-opacity:1;fill-rule:nonzero;stroke:none"
             id="path112" /></g><g
           id="g114"
           transform="translate(235.1377,417.4943)"><path
             d="M 0,0 C 3.4,0.81 5.256,-0.237 5.877,-2.853 6.582,-5.803 5.488,-7.134 1.893,-7.992 l -7.683,-1.834 0.524,-2.184 7.869,1.885 c 1.69,0.425 3.463,1.041 4.295,2.572 0.727,1.318 0.916,2.947 0.455,4.878 C 6.47,1.02 3.875,2.577 0.109,1.679 l -8.186,-1.953 0.374,-1.57 z"
             style="fill:#76777b;fill-opacity:1;fill-rule:nonzero;stroke:none"
             id="path116" /></g><g
           id="g118"
           transform="translate(364.1143,460.4313)"><path
             d="M 0,0 0.586,-1.138 15.885,0.057 14.945,1.878 2.9,0.692 10.859,9.804 9.703,12.047 Z"
             style="fill:#76777b;fill-opacity:1;fill-rule:nonzero;stroke:none"
             id="path120" /></g><g
           id="g122"
           transform="translate(369.5713,451.7633)"><path
             d="M 0,0 C 0.42,0.134 4.52,1.434 4.932,1.565 L 6.418,-3.111 7.785,-2.675 6.305,2 c 0.4,0.126 4.056,1.286 4.455,1.413 l 1.613,-5.097 1.16,0.366 -2.291,7.234 -13.484,-4.274 2.328,-7.355 1.568,0.498 z"
             style="fill:#76777b;fill-opacity:1;fill-rule:nonzero;stroke:none"
             id="path124" /></g><g
           id="g126"
           transform="translate(384.251,413.5861)"><path
             d="M 0,0 -1.135,0.319 -2.32,-3.909 c -0.463,0.131 -12.483,3.495 -12.483,3.495 l -0.607,-2.159 12.476,-3.498 -1.125,-4.051 1.143,-0.313 z"
             style="fill:#76777b;fill-opacity:1;fill-rule:nonzero;stroke:none"
             id="path128" /></g><g
           id="g130"
           transform="translate(378.71,442.693)"><path
             d="M 0,0 C 0.408,0.053 4.268,0.565 4.682,0.62 L 4.965,-1.506 C 5.195,-3.271 4.266,-4.151 2.994,-4.271 1.668,-4.395 0.578,-3.84 0.254,-1.852 Z m -8.43,1.146 0.282,-2.229 6.818,0.906 -6.02,-6.927 0.317,-2.382 6.017,6.888 c 0.399,-2.299 2.266,-4.122 4.301,-3.853 2.32,0.309 3.309,1.908 2.899,5.027 L 5.596,3.004 Z"
             style="fill:#76777b;fill-opacity:1;fill-rule:nonzero;stroke:none"
             id="path132" /></g><g
           id="g134"
           transform="translate(268.6704,500.5866)"><path
             d="m 0,0 -1.365,-0.868 5.397,-8.494 c -4.973,1.284 -13.637,3.257 -13.637,3.257 l -0.971,-0.613 7.58,-11.936 1.368,0.866 c 0,0 -3.153,4.968 -5.681,8.944 l 14.083,-3.608 0.82,0.516 z"
             style="fill:#76777b;fill-opacity:1;fill-rule:nonzero;stroke:none"
             id="path136" /></g><g
           id="g138"
           transform="translate(226.1451,434.6745)"><path
             d="m 0,0 0.033,-1.619 10.065,0.214 C 6.424,-4.993 0.245,-11.382 0.245,-11.382 l 0.021,-1.144 14.142,0.298 -0.034,1.619 c 0,0 -5.881,-0.125 -10.595,-0.224 l 10.382,10.172 -0.02,0.971 z"
             style="fill:#76777b;fill-opacity:1;fill-rule:nonzero;stroke:none"
             id="path140" /></g><g
           id="g142"
           transform="translate(337.2041,503.5133)"><path
             d="m 0,0 -1.535,0.517 -3.207,-9.541 c -2.131,4.673 -6.051,12.649 -6.051,12.649 l -1.086,0.369 -4.506,-13.407 1.533,-0.515 c 0,0 1.875,5.577 3.377,10.043 l 6.055,-13.213 0.92,-0.309 z"
             style="fill:#76777b;fill-opacity:1;fill-rule:nonzero;stroke:none"
             id="path144" /></g><g
           id="g146"
           transform="translate(368.5576,479.6706)"><path
             d="m 0,0 -1.104,1.184 -7.371,-6.855 c 0.356,5.124 0.719,14.005 0.719,14.005 l -0.779,0.841 -10.356,-9.633 1.1,-1.184 c 0,0 4.311,4.006 7.76,7.217 l -0.983,-14.503 0.66,-0.71 z"
             style="fill:#76777b;fill-opacity:1;fill-rule:nonzero;stroke:none"
             id="path148" /></g></g></g><g
       id="g150"><g
         id="g152"><g
           id="g158"><g
             id="g160"><path
               d="m 274.656,465.582 c -17.342,-17.388 -18.25,-44.947 -2.769,-63.413 v 0 c 4.003,5.255 9.485,11.322 16.217,16.065 v 0 c 5.254,3.707 12.553,7.416 18.419,7.977 v 0 c 5.554,0.529 13.826,0.005 18.838,-2.395 v 0 c -3.922,4.012 -8.055,8.509 -10.081,11.202 v 0 c -2.631,3.494 -4.191,7.842 -4.197,12.556 v 0 c -0.013,11.556 9.316,20.937 20.844,20.952 v 0 c 2.788,0.004 5.449,-0.546 7.879,-1.538 v 0 c -8.991,8.275 -20.421,12.412 -31.846,12.413 v 0 c -12.059,10e-4 -24.113,-4.606 -33.304,-13.819"
               style="fill:url(#linearGradient170);stroke:none"
               id="path172" /></g></g></g></g><g
       id="g174"><g
         id="g176"><g
           id="g182"><g
             id="g184"><path
               d="m 276.107,466.965 33.369,-34.636 0.144,-0.054 -22.11,42.456 c -4.074,-1.966 -7.917,-4.555 -11.403,-7.766"
               style="fill:url(#linearGradient198);stroke:none"
               id="path200" /></g></g></g></g><g
       id="g202"><g
         id="g204"><g
           id="g210"><g
             id="g212"><path
               d="m 301.135,478.895 8.558,-46.647 0.045,-0.016 2.853,46.93 c -1.541,0.151 -3.088,0.227 -4.635,0.227 v 0 c -2.281,0 -4.561,-0.165 -6.821,-0.494"
               style="fill:url(#linearGradient226);stroke:none"
               id="path228" /></g></g></g></g><g
       id="g230"><g
         id="g232"><g
           id="g238"><g
             id="g240"><path
               d="m 261.123,436.667 48.468,-4.459 -0.115,0.121 -45.461,16.822 c -1.539,-4.034 -2.5,-8.237 -2.892,-12.484"
               style="fill:url(#linearGradient254);stroke:none"
               id="path256" /></g></g></g></g><g
       id="g258"><g
         id="g260"><g
           id="g266"><g
             id="g268"><path
               d="m 261.427,425.531 c 0.476,-3.277 1.308,-6.514 2.475,-9.65 v 0 l 45.558,16.207 z"
               style="fill:url(#linearGradient282);stroke:none"
               id="path284" /></g></g></g></g><g
       id="g286"><g
         id="g288"
         clip-path="url(#clipPath292)"><g
           id="g294"
           transform="translate(271.024,390.6681)"><path
             d="m 0,0 c -1.369,1.194 -3.713,3.401 -5.812,6.104 -9.622,10.764 -20.627,39.017 -2.405,64.679 7.524,10.581 18.325,17.71 29.061,20.61 25.039,6.763 44.297,-5.05 53.121,-14.576 0.981,-1.061 0.842,-2.416 0.098,-3.042 -1.092,-0.919 -2.076,-0.443 -4.281,0.193 -3.432,0.993 -6.387,1.223 -9.565,0.814 -7.355,-0.947 -13.72,-7.78 -12.826,-17.31 0.818,-8.7 7.537,-14.977 12.252,-19.12 C 76.213,23.801 70.696,8.173 69.35,4.739 64.79,-6.918 53.075,-15.15 37.872,-15.169 c -6.313,-0.008 -15.438,1.617 -24.616,7.418 -0.353,0.158 -0.705,0.632 -0.273,1.413 0.697,1.773 3.619,6.944 4.88,8.437 4.565,-5.261 12.264,-10.208 20.807,-10.51 11.68,-0.412 19.2,5.918 21.946,13.944 3.088,9.016 -0.221,18.196 -8.959,26.474 -7.532,7.135 -14.254,13.737 -14.66,25.07 C 36.481,71.593 49.108,80.232 60.854,79.67 61.208,79.652 44.6,91.601 23.315,84.444 12.896,80.937 6.666,74.777 3.678,71.273 3.233,70.73 3.514,70.319 3.668,70.101 4,69.626 11.252,59.539 11.252,59.539 l -13.061,2.986 c 0,0 -0.545,0.129 -0.814,-0.315 -4.142,-7.163 -10.231,-27.86 3.452,-46.69 0,0 11.607,18.441 34.703,20.042 1.537,0.104 1.343,-0.447 0.334,-0.813 C 15.243,27.14 7.121,11.997 1.877,0.32 1.555,-0.402 0.699,-0.615 0,0"
             style="fill:#003c71;fill-opacity:1;fill-rule:nonzero;stroke:none"
             id="path296" /></g><g
           id="g298"
           transform="translate(292.274,404.9123)"><path
             d="M 0,0 C 0,0 1.287,0.576 1.653,0.779 L 1.666,-8.168 3.286,-8.166 3.27,2.358 3.008,2.532 2.924,2.49 C 1.749,1.904 0.543,1.352 -0.48,0.934 Z"
             style="fill:#76777b;fill-opacity:1;fill-rule:nonzero;stroke:none"
             id="path300" /></g><g
           id="g302"
           transform="translate(300.876,402.0138)"><path
             d="m 0,0 c 1.31,0.002 1.949,-0.675 1.951,-2.063 0.002,-1.42 -0.879,-2.341 -2.244,-2.342 -0.989,-10e-4 -1.659,0.661 -1.902,0.944 l -0.201,0.233 -0.387,-1.393 0.125,-0.059 c 0.564,-0.266 1.283,-0.538 2.335,-0.537 2.307,0.003 3.981,1.41 3.979,3.346 C 3.654,-0.097 2.285,0.411 1.451,0.56 2.359,0.946 3.177,1.778 3.176,3.036 3.173,4.512 2.01,5.419 0.143,5.424 -1.44,5.433 -2.246,4.393 -2.246,4.393 l 0.693,-1.204 0.117,0.339 C -1.25,4.07 -0.67,4.619 0.084,4.621 0.751,4.621 1.527,4.183 1.529,2.938 1.531,1.97 1.264,0.815 -0.002,0.814 l -0.84,0.065 0.002,-0.994 c 0,0 0.469,0.125 0.84,0.115"
             style="fill:#76777b;fill-opacity:1;fill-rule:nonzero;stroke:none"
             id="path304" /></g><g
           id="g306"
           transform="translate(309.6826,401.8175)"><path
             d="M 0,0 C -1.131,-0.001 -1.68,0.74 -1.682,2.259 -1.684,3.795 -0.951,4.827 0.145,4.828 1.238,4.829 1.977,3.956 1.979,2.653 1.98,1.336 1.303,0.003 0,0 m -2.939,-2.926 0.433,-1.701 c 0,0 0.672,-0.387 1.615,-0.383 2.7,0.013 4.582,2.54 4.577,6.168 C 3.682,5.201 1.215,5.634 0.158,5.633 -1.896,5.629 -3.328,4.241 -3.326,2.257 c 0.004,-1.941 1.18,-3.145 3.076,-3.142 0.963,0.001 1.713,0.38 2.27,1.088 -0.108,-2.26 -0.999,-4.324 -2.844,-4.337 -1.481,-0.012 -2.115,1.208 -2.115,1.208"
             style="fill:#76777b;fill-opacity:1;fill-rule:nonzero;stroke:none"
             id="path308" /></g><g
           id="g310"
           transform="translate(318.294,397.632)"><path
             d="m 0,0 c -1.113,-0.002 -1.865,0.943 -1.867,2.352 -0.002,1.408 0.748,2.353 1.861,2.354 1.113,0 1.86,-0.942 1.861,-2.35 C 1.857,0.927 1.131,0.001 0,0 m -1.434,7.268 c 0,0.412 0.102,1.754 1.436,1.757 C 1.318,9.026 1.463,7.799 1.465,7.271 1.465,6.859 1.361,5.515 0.006,5.514 -1.328,5.511 -1.434,6.855 -1.434,7.268 M 1.504,5.24 c 0.918,0.411 1.514,1.241 1.512,2.231 0,1.089 -0.793,2.36 -3.03,2.358 -1.697,-0.003 -2.972,-1.096 -2.97,-2.545 0,-1.08 0.734,-1.84 1.521,-2.13 C -2.77,4.636 -3.51,3.632 -3.508,2.274 -3.506,0.426 -2.098,-0.815 0,-0.812 2.035,-0.811 3.508,0.638 3.506,2.627 3.502,4.464 2.146,5.06 1.504,5.24"
             style="fill:#76777b;fill-opacity:1;fill-rule:nonzero;stroke:none"
             id="path312" /></g></g></g></g></svg>
